<svg width="964" height="843" viewBox="0 0 964 843" fill="none" xmlns="http://www.w3.org/2000/svg">
<path d="M462.217 785.889V612.075H569.962V631.195H481.519V689.298H558.479V708.418H481.519V785.889H462.217Z" fill="#706E7A"/>
<path d="M600.441 785.889V602.143H619.009V785.889H600.441Z" fill="#706E7A"/>
<path d="M709.119 788.373C696.577 788.373 685.339 785.476 675.403 779.682C665.63 773.722 657.893 765.694 652.193 755.596C646.492 745.333 643.642 733.662 643.642 720.585C643.642 707.673 646.492 696.168 652.193 686.07C657.893 675.807 665.63 667.778 675.403 661.985C685.339 656.191 696.577 653.294 709.119 653.294C721.661 653.294 732.818 656.191 742.591 661.985C752.526 667.778 760.263 675.807 765.801 686.07C771.502 696.168 774.352 707.673 774.352 720.585C774.352 733.662 771.502 745.333 765.801 755.596C760.263 765.694 752.526 773.722 742.591 779.682C732.818 785.476 721.661 788.373 709.119 788.373ZM709.119 770.494C718.077 770.494 725.977 768.343 732.818 764.039C739.822 759.735 745.278 753.858 749.187 746.409C753.097 738.794 755.051 730.186 755.051 720.585C755.051 710.984 753.097 702.541 749.187 695.258C745.278 687.808 739.822 681.932 732.818 677.628C725.977 673.324 718.077 671.172 709.119 671.172C700.161 671.172 692.18 673.324 685.176 677.628C678.172 681.932 672.716 687.808 668.806 695.258C664.897 702.707 662.943 711.149 662.943 720.585C662.943 730.186 664.897 738.794 668.806 746.409C672.716 753.858 678.172 759.735 685.176 764.039C692.18 768.343 700.161 770.494 709.119 770.494Z" fill="#706E7A"/>
<path d="M826.61 785.889L782.144 656.025H801.934L833.451 752.865L867.411 676.138H878.65L912.122 751.623L943.883 656.025H963.429L919.207 785.889H908.212L872.542 702.707L837.849 785.889H826.61Z" fill="#706E7A"/>
<path d="M0 785.889V612.075H72.0741C82.1727 612.075 91.2125 614.558 99.1936 619.524C107.338 624.325 113.771 630.946 118.495 639.389C123.381 647.666 125.824 657.019 125.824 667.447C125.824 678.207 123.381 687.891 118.495 696.499C113.771 704.942 107.338 711.729 99.1936 716.86C91.2125 721.826 82.1727 724.31 72.0741 724.31H35.182V785.889H0ZM34.9376 691.781H68.4094C74.4359 691.781 79.4852 689.547 83.5571 685.077C87.792 680.442 89.9094 674.731 89.9094 667.944C89.9094 661.157 87.792 655.611 83.5571 651.307C79.4852 646.838 74.4359 644.603 68.4094 644.603H34.9376V691.781Z" fill="#FF941A"/>
<path d="M200.006 788.373C189.256 788.373 179.564 785.393 170.932 779.434C162.299 773.474 155.377 765.363 150.165 755.1C145.115 744.836 142.591 733.166 142.591 720.088C142.591 706.68 145.115 694.927 150.165 684.829C155.377 674.565 162.381 666.537 171.176 660.743C180.134 654.949 190.233 652.052 201.472 652.052C210.593 652.052 218.574 653.956 225.415 657.763C232.256 661.405 237.712 666.206 241.784 672.165V654.784H275.012V785.889H241.54V768.26C236.979 774.054 231.034 778.854 223.705 782.662C216.538 786.469 208.638 788.373 200.006 788.373ZM209.046 758.824C218.981 758.824 227.044 755.265 233.233 748.147C239.423 741.029 242.517 731.676 242.517 720.088C242.517 708.501 239.423 699.148 233.233 692.03C227.044 684.912 218.981 681.353 209.046 681.353C199.273 681.353 191.292 684.912 185.102 692.03C179.076 699.148 176.062 708.501 176.062 720.088C176.062 731.676 179.076 741.029 185.102 748.147C191.292 755.265 199.273 758.824 209.046 758.824Z" fill="#FF941A"/>
<path d="M325.517 843L349.46 786.634L290.824 654.784H328.693L361.432 733.249C362.898 736.725 364.364 740.781 365.83 745.416C366.481 743.595 367.051 741.857 367.54 740.201C368.191 738.38 368.843 736.477 369.494 734.49L397.591 654.784H435.949L381.71 785.889L359.477 843H325.517Z" fill="#FF941A"/>
<path d="M325.157 60.2142H343.221V349.243H325.157V60.2142Z" fill="#B1B0B8"/>
<path d="M289.029 60.2142H307.093V349.243H289.029V60.2142Z" fill="#B1B0B8"/>
<path d="M403.436 60.2142H415.479V349.243H403.436V60.2142Z" fill="#B1B0B8"/>
<path d="M433.543 60.2142H457.629V349.243H433.543V60.2142Z" fill="#B1B0B8"/>
<path d="M234.836 60.2142H264.943V349.243H234.836V60.2142Z" fill="#B1B0B8"/>
<path d="M361.286 60.2142H391.393V349.243H361.286V60.2142Z" fill="#B1B0B8"/>
<path d="M662.357 349.243H638.271V60.2142H662.357V349.243Z" fill="#B1B0B8"/>
<path d="M692.464 349.243H680.421V60.2142H692.464V349.243Z" fill="#B1B0B8"/>
<path d="M572.036 349.243H559.993V60.2142H572.036V349.243Z" fill="#B1B0B8"/>
<path d="M493.757 349.243H481.714V60.2142H493.757V349.243Z" fill="#B1B0B8"/>
<path d="M541.929 349.243H517.843V60.2142H541.929V349.243Z" fill="#B1B0B8"/>
<path d="M740.636 349.243H716.55V60.2142H740.636V349.243Z" fill="#B1B0B8"/>
<path d="M620.207 349.243H590.1V60.2142H620.207V349.243Z" fill="#B1B0B8"/>
<path d="M788.807 192.686V216.771H180.643V192.686H788.807Z" fill="#585666"/>
<path fill-rule="evenodd" clip-rule="evenodd" d="M180.643 0H168.6V5.72205e-06V12.0429V72.2571H180.643V12.0429L240.857 12.0429V2.56359e-06L180.643 0Z" fill="#FF941A"/>
<path fill-rule="evenodd" clip-rule="evenodd" d="M728.593 409.457L788.807 409.457L800.85 409.457L800.85 397.414L800.85 337.2L788.807 337.2L788.807 397.414L728.593 397.414L728.593 409.457Z" fill="#FF941A"/>
<path fill-rule="evenodd" clip-rule="evenodd" d="M800.85 12.0429L800.85 0L788.807 -5.26411e-07L728.593 -3.15846e-06L728.593 12.0429L788.807 12.0429L788.807 72.2572L800.85 72.2572L800.85 12.0429Z" fill="#FF941A"/>
<path fill-rule="evenodd" clip-rule="evenodd" d="M168.6 337.2L168.6 409.457L180.643 409.457L240.857 409.457L240.857 397.414L180.643 397.414L180.643 337.2L168.6 337.2Z" fill="#FF941A"/>
</svg>
