<svg width="1217" height="1881" viewBox="0 0 1217 1881" fill="none" xmlns="http://www.w3.org/2000/svg">
<path fill-rule="evenodd" clip-rule="evenodd" d="M1217 9.37805e-06V35.8251V214.951H1181.21V35.8251L1002.24 35.8251V0L1181.21 9.37805e-06H1217ZM214.765 1844.99H35.7941L35.7942 1665.87H5.15314e-05L3.74629e-05 1844.99L3.27739e-05 1880.82H214.765V1844.99ZM1181.21 1880.82H1217V1665.87H1181.21V1844.99H1002.24V1880.82L1181.21 1880.82ZM3.75832e-05 9.37805e-06L35.7941 1.56365e-05V9.80041e-05L214.765 0.000121518V35.8252L35.7941 35.8252L35.7941 214.951H0L3.75832e-05 9.37805e-06Z" fill="#F2F2F5"/>
</svg>
